<?xml version="1.0" encoding="UTF-8" standalone="no"?>
<!DOCTYPE svg PUBLIC "-//W3C//DTD SVG 1.1//EN"
 "http://www.w3.org/Graphics/SVG/1.1/DTD/svg11.dtd">
<!-- Generated by graphviz version 5.0.0 (20220707.1540)
 -->
<!-- Title: dependencies Pages: 1 -->
<svg width="786pt" height="174pt"
 viewBox="0.00 0.00 786.00 173.80" xmlns="http://www.w3.org/2000/svg" xmlns:xlink="http://www.w3.org/1999/xlink">
<g id="graph0" class="graph" transform="scale(1 1) rotate(0) translate(4 169.8)">
<title>dependencies</title>
<polygon fill="white" stroke="transparent" points="-4,4 -4,-169.8 782,-169.8 782,4 -4,4"/>
<text text-anchor="middle" x="389" y="-8.2" font-family="sans-serif" font-size="14.00">dependencies</text>
<g id="clust1" class="cluster">
<title>cluster_PredictionsModule</title>
<polygon fill="none" stroke="black" stroke-dasharray="1,5" points="8,-32.8 8,-157.8 770,-157.8 770,-32.8 8,-32.8"/>
</g>
<g id="clust6" class="cluster">
<title>cluster_PredictionsModule_imports</title>
<polygon fill="none" stroke="black" points="474,-40.8 474,-92.8 762,-92.8 762,-40.8 474,-40.8"/>
</g>
<g id="clust2" class="cluster">
<title>cluster_PredictionsModule_declarations</title>
<polygon fill="none" stroke="black" points="16,-40.8 16,-92.8 466,-92.8 466,-40.8 16,-40.8"/>
</g>
<!-- AccueilComponent -->
<g id="node1" class="node">
<title>AccueilComponent</title>
<polygon fill="#ffffb3" stroke="black" points="458.36,-84.8 333.64,-84.8 333.64,-48.8 458.36,-48.8 458.36,-84.8"/>
<text text-anchor="middle" x="396" y="-62.6" font-family="Times,serif" font-size="14.00">AccueilComponent</text>
</g>
<!-- PredictionsModule -->
<g id="node4" class="node">
<title>PredictionsModule</title>
<polygon fill="#8dd3c7" stroke="black" points="457.05,-149.8 454.05,-153.8 433.05,-153.8 430.05,-149.8 334.95,-149.8 334.95,-113.8 457.05,-113.8 457.05,-149.8"/>
<text text-anchor="middle" x="396" y="-127.6" font-family="Times,serif" font-size="14.00">PredictionsModule</text>
</g>
<!-- AccueilComponent&#45;&gt;PredictionsModule -->
<g id="edge1" class="edge">
<title>AccueilComponent&#45;&gt;PredictionsModule</title>
<path fill="none" stroke="black" d="M396,-84.91C396,-84.91 396,-103.79 396,-103.79"/>
<polygon fill="black" stroke="black" points="392.5,-103.79 396,-113.79 399.5,-103.79 392.5,-103.79"/>
</g>
<!-- ProfilComponent -->
<g id="node2" class="node">
<title>ProfilComponent</title>
<polygon fill="#ffffb3" stroke="black" points="315.72,-84.8 202.28,-84.8 202.28,-48.8 315.72,-48.8 315.72,-84.8"/>
<text text-anchor="middle" x="259" y="-62.6" font-family="Times,serif" font-size="14.00">ProfilComponent</text>
</g>
<!-- ProfilComponent&#45;&gt;PredictionsModule -->
<g id="edge2" class="edge">
<title>ProfilComponent&#45;&gt;PredictionsModule</title>
<path fill="none" stroke="black" d="M259,-84.82C259,-102.17 259,-125.8 259,-125.8 259,-125.8 324.71,-125.8 324.71,-125.8"/>
<polygon fill="black" stroke="black" points="324.71,-129.3 334.71,-125.8 324.71,-122.3 324.71,-129.3"/>
</g>
<!-- VisualisationsComponent -->
<g id="node3" class="node">
<title>VisualisationsComponent</title>
<polygon fill="#ffffb3" stroke="black" points="184.16,-84.8 23.84,-84.8 23.84,-48.8 184.16,-48.8 184.16,-84.8"/>
<text text-anchor="middle" x="104" y="-62.6" font-family="Times,serif" font-size="14.00">VisualisationsComponent</text>
</g>
<!-- VisualisationsComponent&#45;&gt;PredictionsModule -->
<g id="edge3" class="edge">
<title>VisualisationsComponent&#45;&gt;PredictionsModule</title>
<path fill="none" stroke="black" d="M104,-85.08C104,-106.12 104,-137.8 104,-137.8 104,-137.8 324.79,-137.8 324.79,-137.8"/>
<polygon fill="black" stroke="black" points="324.79,-141.3 334.79,-137.8 324.79,-134.3 324.79,-141.3"/>
</g>
<!-- PredictionsRoutingModule -->
<g id="node5" class="node">
<title>PredictionsRoutingModule</title>
<polygon fill="#8dd3c7" stroke="black" points="753.66,-84.8 750.66,-88.8 729.66,-88.8 726.66,-84.8 586.34,-84.8 586.34,-48.8 753.66,-48.8 753.66,-84.8"/>
<text text-anchor="middle" x="670" y="-62.6" font-family="Times,serif" font-size="14.00">PredictionsRoutingModule</text>
</g>
<!-- PredictionsRoutingModule&#45;&gt;PredictionsModule -->
<g id="edge4" class="edge">
<title>PredictionsRoutingModule&#45;&gt;PredictionsModule</title>
<path fill="none" stroke="black" d="M670,-85.08C670,-106.12 670,-137.8 670,-137.8 670,-137.8 467.15,-137.8 467.15,-137.8"/>
<polygon fill="black" stroke="black" points="467.15,-134.3 457.15,-137.8 467.15,-141.3 467.15,-134.3"/>
</g>
<!-- UtilsModule -->
<g id="node6" class="node">
<title>UtilsModule</title>
<polygon fill="#8dd3c7" stroke="black" points="568.28,-84.8 565.28,-88.8 544.28,-88.8 541.28,-84.8 481.72,-84.8 481.72,-48.8 568.28,-48.8 568.28,-84.8"/>
<text text-anchor="middle" x="525" y="-62.6" font-family="Times,serif" font-size="14.00">UtilsModule</text>
</g>
<!-- UtilsModule&#45;&gt;PredictionsModule -->
<g id="edge5" class="edge">
<title>UtilsModule&#45;&gt;PredictionsModule</title>
<path fill="none" stroke="black" d="M525,-84.82C525,-102.17 525,-125.8 525,-125.8 525,-125.8 467.1,-125.8 467.1,-125.8"/>
<polygon fill="black" stroke="black" points="467.1,-122.3 457.1,-125.8 467.1,-129.3 467.1,-122.3"/>
</g>
</g>
</svg>
