<?xml version="1.0" encoding="UTF-8" standalone="no"?>
<!DOCTYPE svg PUBLIC "-//W3C//DTD SVG 1.1//EN"
 "http://www.w3.org/Graphics/SVG/1.1/DTD/svg11.dtd">
<!-- Generated by graphviz version 5.0.0 (20220707.1540)
 -->
<!-- Title: dependencies Pages: 1 -->
<svg width="926pt" height="247pt"
 viewBox="0.00 0.00 926.00 246.80" xmlns="http://www.w3.org/2000/svg" xmlns:xlink="http://www.w3.org/1999/xlink">
<g id="graph0" class="graph" transform="scale(1 1) rotate(0) translate(4 242.8)">
<title>dependencies</title>
<polygon fill="white" stroke="transparent" points="-4,4 -4,-242.8 922,-242.8 922,4 -4,4"/>
<text text-anchor="middle" x="459" y="-8.2" font-family="sans-serif" font-size="14.00">dependencies</text>
<g id="clust1" class="cluster">
<title>cluster_UtilsModule</title>
<polygon fill="none" stroke="black" stroke-dasharray="1,5" points="8,-32.8 8,-230.8 910,-230.8 910,-32.8 8,-32.8"/>
</g>
<g id="clust12" class="cluster">
<title>cluster_UtilsModule_exports</title>
<polygon fill="none" stroke="black" points="16,-170.8 16,-222.8 902,-222.8 902,-170.8 16,-170.8"/>
</g>
<g id="clust2" class="cluster">
<title>cluster_UtilsModule_declarations</title>
<polygon fill="none" stroke="black" points="31,-40.8 31,-92.8 892,-92.8 892,-40.8 31,-40.8"/>
</g>
<!-- EcartsPipe -->
<g id="node1" class="node">
<title>EcartsPipe</title>
<polygon fill="#ffffb3" stroke="black" points="883.87,-84.8 808.13,-84.8 808.13,-48.8 883.87,-48.8 883.87,-84.8"/>
<text text-anchor="middle" x="846" y="-62.6" font-family="Times,serif" font-size="14.00">EcartsPipe</text>
</g>
<!-- UtilsModule -->
<g id="node9" class="node">
<title>UtilsModule</title>
<polygon fill="#8dd3c7" stroke="black" points="466.28,-149.8 463.28,-153.8 442.28,-153.8 439.28,-149.8 379.72,-149.8 379.72,-113.8 466.28,-113.8 466.28,-149.8"/>
<text text-anchor="middle" x="423" y="-127.6" font-family="Times,serif" font-size="14.00">UtilsModule</text>
</g>
<!-- EcartsPipe&#45;&gt;UtilsModule -->
<g id="edge1" class="edge">
<title>EcartsPipe&#45;&gt;UtilsModule</title>
<path fill="none" stroke="black" d="M860.73,-85.02C860.73,-103.63 860.73,-129.8 860.73,-129.8 860.73,-129.8 476.57,-129.8 476.57,-129.8"/>
<polygon fill="black" stroke="black" points="476.57,-126.3 466.57,-129.8 476.57,-133.3 476.57,-126.3"/>
</g>
<!-- EnteteComponent -->
<g id="node2" class="node">
<title>EnteteComponent</title>
<polygon fill="#ffffb3" stroke="black" points="790.59,-84.8 673.41,-84.8 673.41,-48.8 790.59,-48.8 790.59,-84.8"/>
<text text-anchor="middle" x="732" y="-62.6" font-family="Times,serif" font-size="14.00">EnteteComponent</text>
</g>
<!-- EnteteComponent&#45;&gt;UtilsModule -->
<g id="edge2" class="edge">
<title>EnteteComponent&#45;&gt;UtilsModule</title>
<path fill="none" stroke="black" d="M752.26,-84.82C752.26,-102.17 752.26,-125.8 752.26,-125.8 752.26,-125.8 476.38,-125.8 476.38,-125.8"/>
<polygon fill="black" stroke="black" points="476.38,-122.3 466.38,-125.8 476.38,-129.3 476.38,-122.3"/>
</g>
<!-- FiltresPipe -->
<g id="node3" class="node">
<title>FiltresPipe</title>
<polygon fill="#ffffb3" stroke="black" points="655.17,-84.8 578.83,-84.8 578.83,-48.8 655.17,-48.8 655.17,-84.8"/>
<text text-anchor="middle" x="617" y="-62.6" font-family="Times,serif" font-size="14.00">FiltresPipe</text>
</g>
<!-- FiltresPipe&#45;&gt;UtilsModule -->
<g id="edge3" class="edge">
<title>FiltresPipe&#45;&gt;UtilsModule</title>
<path fill="none" stroke="black" d="M629.78,-84.81C629.78,-100.85 629.78,-121.8 629.78,-121.8 629.78,-121.8 476.35,-121.8 476.35,-121.8"/>
<polygon fill="black" stroke="black" points="476.35,-118.3 466.35,-121.8 476.35,-125.3 476.35,-118.3"/>
</g>
<!-- MarkPipe -->
<g id="node4" class="node">
<title>MarkPipe</title>
<polygon fill="#ffffb3" stroke="black" points="560.71,-84.8 489.29,-84.8 489.29,-48.8 560.71,-48.8 560.71,-84.8"/>
<text text-anchor="middle" x="525" y="-62.6" font-family="Times,serif" font-size="14.00">MarkPipe</text>
</g>
<!-- MarkPipe&#45;&gt;UtilsModule -->
<g id="edge4" class="edge">
<title>MarkPipe&#45;&gt;UtilsModule</title>
<path fill="none" stroke="black" d="M513.05,-84.92C513.05,-99.58 513.05,-117.8 513.05,-117.8 513.05,-117.8 476.44,-117.8 476.44,-117.8"/>
<polygon fill="black" stroke="black" points="476.44,-114.3 466.44,-117.8 476.44,-121.3 476.44,-114.3"/>
</g>
<!-- PiedComponent -->
<g id="node5" class="node">
<title>PiedComponent</title>
<polygon fill="#ffffb3" stroke="black" points="471.22,-84.8 364.78,-84.8 364.78,-48.8 471.22,-48.8 471.22,-84.8"/>
<text text-anchor="middle" x="418" y="-62.6" font-family="Times,serif" font-size="14.00">PiedComponent</text>
</g>
<!-- PiedComponent&#45;&gt;UtilsModule -->
<g id="edge5" class="edge">
<title>PiedComponent&#45;&gt;UtilsModule</title>
<path fill="none" stroke="black" d="M423,-84.91C423,-84.91 423,-103.79 423,-103.79"/>
<polygon fill="black" stroke="black" points="419.5,-103.79 423,-113.79 426.5,-103.79 419.5,-103.79"/>
</g>
<!-- PopupComponent -->
<g id="node6" class="node">
<title>PopupComponent</title>
<polygon fill="#ffffb3" stroke="black" points="346.62,-84.8 229.38,-84.8 229.38,-48.8 346.62,-48.8 346.62,-84.8"/>
<text text-anchor="middle" x="288" y="-62.6" font-family="Times,serif" font-size="14.00">PopupComponent</text>
</g>
<!-- PopupComponent&#45;&gt;UtilsModule -->
<g id="edge6" class="edge">
<title>PopupComponent&#45;&gt;UtilsModule</title>
<path fill="none" stroke="black" d="M303.35,-85.04C303.35,-100.37 303.35,-119.8 303.35,-119.8 303.35,-119.8 369.47,-119.8 369.47,-119.8"/>
<polygon fill="black" stroke="black" points="369.47,-123.3 379.47,-119.8 369.47,-116.3 369.47,-123.3"/>
</g>
<!-- ProfilsPipe -->
<g id="node7" class="node">
<title>ProfilsPipe</title>
<polygon fill="#ffffb3" stroke="black" points="211.23,-84.8 132.77,-84.8 132.77,-48.8 211.23,-48.8 211.23,-84.8"/>
<text text-anchor="middle" x="172" y="-62.6" font-family="Times,serif" font-size="14.00">ProfilsPipe</text>
</g>
<!-- ProfilsPipe&#45;&gt;UtilsModule -->
<g id="edge7" class="edge">
<title>ProfilsPipe&#45;&gt;UtilsModule</title>
<path fill="none" stroke="black" d="M206.49,-84.83C206.49,-101.86 206.49,-124.8 206.49,-124.8 206.49,-124.8 369.71,-124.8 369.71,-124.8"/>
<polygon fill="black" stroke="black" points="369.71,-128.3 379.71,-124.8 369.71,-121.3 369.71,-128.3"/>
</g>
<!-- TypesPipe -->
<g id="node8" class="node">
<title>TypesPipe</title>
<polygon fill="#ffffb3" stroke="black" points="114.6,-84.8 39.4,-84.8 39.4,-48.8 114.6,-48.8 114.6,-84.8"/>
<text text-anchor="middle" x="77" y="-62.6" font-family="Times,serif" font-size="14.00">TypesPipe</text>
</g>
<!-- TypesPipe&#45;&gt;UtilsModule -->
<g id="edge8" class="edge">
<title>TypesPipe&#45;&gt;UtilsModule</title>
<path fill="none" stroke="black" d="M108.43,-85.02C108.43,-103.63 108.43,-129.8 108.43,-129.8 108.43,-129.8 369.59,-129.8 369.59,-129.8"/>
<polygon fill="black" stroke="black" points="369.59,-133.3 379.59,-129.8 369.59,-126.3 369.59,-133.3"/>
</g>
<!-- EcartsPipe  -->
<g id="node10" class="node">
<title>EcartsPipe </title>
<polygon fill="#fb8072" stroke="black" points="893.87,-214.8 814.13,-214.8 814.13,-178.8 893.87,-178.8 893.87,-214.8"/>
<text text-anchor="middle" x="854" y="-192.6" font-family="Times,serif" font-size="14.00">EcartsPipe </text>
</g>
<!-- UtilsModule&#45;&gt;EcartsPipe  -->
<g id="edge9" class="edge">
<title>UtilsModule&#45;&gt;EcartsPipe </title>
<path fill="none" stroke="black" stroke-dasharray="5,2" d="M466.58,-133.8C573,-133.8 837.52,-133.8 837.52,-133.8 837.52,-133.8 837.52,-168.58 837.52,-168.58"/>
<polygon fill="black" stroke="black" points="834.02,-168.58 837.52,-178.58 841.02,-168.58 834.02,-168.58"/>
</g>
<!-- EnteteComponent  -->
<g id="node11" class="node">
<title>EnteteComponent </title>
<polygon fill="#fb8072" stroke="black" points="796.09,-214.8 675.91,-214.8 675.91,-178.8 796.09,-178.8 796.09,-214.8"/>
<text text-anchor="middle" x="736" y="-192.6" font-family="Times,serif" font-size="14.00">EnteteComponent </text>
</g>
<!-- UtilsModule&#45;&gt;EnteteComponent  -->
<g id="edge10" class="edge">
<title>UtilsModule&#45;&gt;EnteteComponent </title>
<path fill="none" stroke="black" stroke-dasharray="5,2" d="M466.56,-137.8C547.74,-137.8 713.99,-137.8 713.99,-137.8 713.99,-137.8 713.99,-168.78 713.99,-168.78"/>
<polygon fill="black" stroke="black" points="710.49,-168.78 713.99,-178.78 717.49,-168.78 710.49,-168.78"/>
</g>
<!-- FiltresPipe  -->
<g id="node12" class="node">
<title>FiltresPipe </title>
<polygon fill="#fb8072" stroke="black" points="658.17,-214.8 577.83,-214.8 577.83,-178.8 658.17,-178.8 658.17,-214.8"/>
<text text-anchor="middle" x="618" y="-192.6" font-family="Times,serif" font-size="14.00">FiltresPipe </text>
</g>
<!-- UtilsModule&#45;&gt;FiltresPipe  -->
<g id="edge11" class="edge">
<title>UtilsModule&#45;&gt;FiltresPipe </title>
<path fill="none" stroke="black" stroke-dasharray="5,2" d="M466.41,-141.8C520.02,-141.8 604.22,-141.8 604.22,-141.8 604.22,-141.8 604.22,-168.79 604.22,-168.79"/>
<polygon fill="black" stroke="black" points="600.72,-168.79 604.22,-178.79 607.72,-168.79 600.72,-168.79"/>
</g>
<!-- MarkPipe  -->
<g id="node13" class="node">
<title>MarkPipe </title>
<polygon fill="#fb8072" stroke="black" points="560.21,-214.8 485.79,-214.8 485.79,-178.8 560.21,-178.8 560.21,-214.8"/>
<text text-anchor="middle" x="523" y="-192.6" font-family="Times,serif" font-size="14.00">MarkPipe </text>
</g>
<!-- UtilsModule&#45;&gt;MarkPipe  -->
<g id="edge12" class="edge">
<title>UtilsModule&#45;&gt;MarkPipe </title>
<path fill="none" stroke="black" stroke-dasharray="5,2" d="M466.31,-145.8C498.44,-145.8 536.7,-145.8 536.7,-145.8 536.7,-145.8 536.7,-168.68 536.7,-168.68"/>
<polygon fill="black" stroke="black" points="533.2,-168.68 536.7,-178.68 540.2,-168.68 533.2,-168.68"/>
</g>
<!-- PiedComponent  -->
<g id="node14" class="node">
<title>PiedComponent </title>
<polygon fill="#fb8072" stroke="black" points="467.72,-214.8 358.28,-214.8 358.28,-178.8 467.72,-178.8 467.72,-214.8"/>
<text text-anchor="middle" x="413" y="-192.6" font-family="Times,serif" font-size="14.00">PiedComponent </text>
</g>
<!-- UtilsModule&#45;&gt;PiedComponent  -->
<g id="edge13" class="edge">
<title>UtilsModule&#45;&gt;PiedComponent </title>
<path fill="none" stroke="black" stroke-dasharray="5,2" d="M423,-149.91C423,-149.91 423,-168.79 423,-168.79"/>
<polygon fill="black" stroke="black" points="419.5,-168.79 423,-178.79 426.5,-168.79 419.5,-168.79"/>
</g>
<!-- PopupComponent  -->
<g id="node15" class="node">
<title>PopupComponent </title>
<polygon fill="#fb8072" stroke="black" points="340.12,-214.8 219.88,-214.8 219.88,-178.8 340.12,-178.8 340.12,-214.8"/>
<text text-anchor="middle" x="280" y="-192.6" font-family="Times,serif" font-size="14.00">PopupComponent </text>
</g>
<!-- UtilsModule&#45;&gt;PopupComponent  -->
<g id="edge14" class="edge">
<title>UtilsModule&#45;&gt;PopupComponent </title>
<path fill="none" stroke="black" stroke-dasharray="5,2" d="M379.38,-144.8C333.04,-144.8 266.4,-144.8 266.4,-144.8 266.4,-144.8 266.4,-168.61 266.4,-168.61"/>
<polygon fill="black" stroke="black" points="262.9,-168.61 266.4,-178.61 269.9,-168.61 262.9,-168.61"/>
</g>
<!-- ProfilsPipe  -->
<g id="node16" class="node">
<title>ProfilsPipe </title>
<polygon fill="#fb8072" stroke="black" points="201.73,-214.8 120.27,-214.8 120.27,-178.8 201.73,-178.8 201.73,-214.8"/>
<text text-anchor="middle" x="161" y="-192.6" font-family="Times,serif" font-size="14.00">ProfilsPipe </text>
</g>
<!-- UtilsModule&#45;&gt;ProfilsPipe  -->
<g id="edge15" class="edge">
<title>UtilsModule&#45;&gt;ProfilsPipe </title>
<path fill="none" stroke="black" stroke-dasharray="5,2" d="M379.64,-139.8C306.71,-139.8 167.38,-139.8 167.38,-139.8 167.38,-139.8 167.38,-168.76 167.38,-168.76"/>
<polygon fill="black" stroke="black" points="163.88,-168.76 167.38,-178.76 170.88,-168.76 163.88,-168.76"/>
</g>
<!-- TypesPipe  -->
<g id="node17" class="node">
<title>TypesPipe </title>
<polygon fill="#fb8072" stroke="black" points="102.1,-214.8 23.9,-214.8 23.9,-178.8 102.1,-178.8 102.1,-214.8"/>
<text text-anchor="middle" x="63" y="-192.6" font-family="Times,serif" font-size="14.00">TypesPipe </text>
</g>
<!-- UtilsModule&#45;&gt;TypesPipe  -->
<g id="edge16" class="edge">
<title>UtilsModule&#45;&gt;TypesPipe </title>
<path fill="none" stroke="black" stroke-dasharray="5,2" d="M379.47,-134.8C285.26,-134.8 70.88,-134.8 70.88,-134.8 70.88,-134.8 70.88,-168.53 70.88,-168.53"/>
<polygon fill="black" stroke="black" points="67.38,-168.53 70.88,-178.53 74.38,-168.53 67.38,-168.53"/>
</g>
</g>
</svg>
