<?xml version="1.0" encoding="UTF-8" standalone="no"?>
<!DOCTYPE svg PUBLIC "-//W3C//DTD SVG 1.1//EN"
 "http://www.w3.org/Graphics/SVG/1.1/DTD/svg11.dtd">
<!-- Generated by graphviz version 3.0.0 (20220226.1711)
 -->
<!-- Title: dependencies Pages: 1 -->
<svg width="1237pt" height="174pt"
 viewBox="0.00 0.00 1237.00 173.80" xmlns="http://www.w3.org/2000/svg" xmlns:xlink="http://www.w3.org/1999/xlink">
<g id="graph0" class="graph" transform="scale(1 1) rotate(0) translate(4 169.8)">
<title>dependencies</title>
<polygon fill="white" stroke="transparent" points="-4,4 -4,-169.8 1233,-169.8 1233,4 -4,4"/>
<text text-anchor="middle" x="614.5" y="-8.2" font-family="sans-serif" font-size="14.00">dependencies</text>
<g id="clust1" class="cluster">
<title>cluster_GestionModule</title>
<polygon fill="none" stroke="black" stroke-dasharray="1,5" points="8,-32.8 8,-157.8 1221,-157.8 1221,-32.8 8,-32.8"/>
</g>
<g id="clust10" class="cluster">
<title>cluster_GestionModule_imports</title>
<polygon fill="none" stroke="black" points="944,-40.8 944,-92.8 1213,-92.8 1213,-40.8 944,-40.8"/>
</g>
<g id="clust2" class="cluster">
<title>cluster_GestionModule_declarations</title>
<polygon fill="none" stroke="black" points="16,-40.8 16,-92.8 936,-92.8 936,-40.8 16,-40.8"/>
</g>
<!-- AccesPipe -->
<g id="node1" class="node">
<title>AccesPipe</title>
<polygon fill="#ffffb3" stroke="black" points="927.59,-84.8 852.41,-84.8 852.41,-48.8 927.59,-48.8 927.59,-84.8"/>
<text text-anchor="middle" x="890" y="-62.6" font-family="Times,serif" font-size="14.00">AccesPipe</text>
</g>
<!-- GestionModule -->
<g id="node8" class="node">
<title>GestionModule</title>
<polygon fill="#8dd3c7" stroke="black" points="639.6,-149.8 636.6,-153.8 615.6,-153.8 612.6,-149.8 536.4,-149.8 536.4,-113.8 639.6,-113.8 639.6,-149.8"/>
<text text-anchor="middle" x="588" y="-127.6" font-family="Times,serif" font-size="14.00">GestionModule</text>
</g>
<!-- AccesPipe&#45;&gt;GestionModule -->
<g id="edge1" class="edge">
<title>AccesPipe&#45;&gt;GestionModule</title>
<path fill="none" stroke="black" d="M890,-85.07C890,-103.36 890,-128.8 890,-128.8 890,-128.8 649.57,-128.8 649.57,-128.8"/>
<polygon fill="black" stroke="black" points="649.57,-125.3 639.57,-128.8 649.57,-132.3 649.57,-125.3"/>
</g>
<!-- AdminAccueilComponent -->
<g id="node2" class="node">
<title>AdminAccueilComponent</title>
<polygon fill="#ffffb3" stroke="black" points="834.75,-84.8 671.25,-84.8 671.25,-48.8 834.75,-48.8 834.75,-84.8"/>
<text text-anchor="middle" x="753" y="-62.6" font-family="Times,serif" font-size="14.00">AdminAccueilComponent</text>
</g>
<!-- AdminAccueilComponent&#45;&gt;GestionModule -->
<g id="edge2" class="edge">
<title>AdminAccueilComponent&#45;&gt;GestionModule</title>
<path fill="none" stroke="black" d="M753,-84.81C753,-100.85 753,-121.8 753,-121.8 753,-121.8 649.75,-121.8 649.75,-121.8"/>
<polygon fill="black" stroke="black" points="649.75,-118.3 639.75,-121.8 649.75,-125.3 649.75,-118.3"/>
</g>
<!-- DataMajComponent -->
<g id="node3" class="node">
<title>DataMajComponent</title>
<polygon fill="#ffffb3" stroke="black" points="653.31,-84.8 522.69,-84.8 522.69,-48.8 653.31,-48.8 653.31,-84.8"/>
<text text-anchor="middle" x="588" y="-62.6" font-family="Times,serif" font-size="14.00">DataMajComponent</text>
</g>
<!-- DataMajComponent&#45;&gt;GestionModule -->
<g id="edge3" class="edge">
<title>DataMajComponent&#45;&gt;GestionModule</title>
<path fill="none" stroke="black" d="M588,-84.91C588,-84.91 588,-103.79 588,-103.79"/>
<polygon fill="black" stroke="black" points="584.5,-103.79 588,-113.79 591.5,-103.79 584.5,-103.79"/>
</g>
<!-- ProfilsComponent -->
<g id="node4" class="node">
<title>ProfilsComponent</title>
<polygon fill="#ffffb3" stroke="black" points="505.17,-84.8 386.83,-84.8 386.83,-48.8 505.17,-48.8 505.17,-84.8"/>
<text text-anchor="middle" x="446" y="-62.6" font-family="Times,serif" font-size="14.00">ProfilsComponent</text>
</g>
<!-- ProfilsComponent&#45;&gt;GestionModule -->
<g id="edge4" class="edge">
<title>ProfilsComponent&#45;&gt;GestionModule</title>
<path fill="none" stroke="black" d="M446,-84.81C446,-100.85 446,-121.8 446,-121.8 446,-121.8 526.33,-121.8 526.33,-121.8"/>
<polygon fill="black" stroke="black" points="526.33,-125.3 536.33,-121.8 526.33,-118.3 526.33,-125.3"/>
</g>
<!-- SetStatePipe -->
<g id="node5" class="node">
<title>SetStatePipe</title>
<polygon fill="#ffffb3" stroke="black" points="368.27,-84.8 281.73,-84.8 281.73,-48.8 368.27,-48.8 368.27,-84.8"/>
<text text-anchor="middle" x="325" y="-62.6" font-family="Times,serif" font-size="14.00">SetStatePipe</text>
</g>
<!-- SetStatePipe&#45;&gt;GestionModule -->
<g id="edge5" class="edge">
<title>SetStatePipe&#45;&gt;GestionModule</title>
<path fill="none" stroke="black" d="M325,-85.07C325,-103.36 325,-128.8 325,-128.8 325,-128.8 526.35,-128.8 526.35,-128.8"/>
<polygon fill="black" stroke="black" points="526.35,-132.3 536.35,-128.8 526.35,-125.3 526.35,-132.3"/>
</g>
<!-- StatutPipe -->
<g id="node6" class="node">
<title>StatutPipe</title>
<polygon fill="#ffffb3" stroke="black" points="263.56,-84.8 190.44,-84.8 190.44,-48.8 263.56,-48.8 263.56,-84.8"/>
<text text-anchor="middle" x="227" y="-62.6" font-family="Times,serif" font-size="14.00">StatutPipe</text>
</g>
<!-- StatutPipe&#45;&gt;GestionModule -->
<g id="edge6" class="edge">
<title>StatutPipe&#45;&gt;GestionModule</title>
<path fill="none" stroke="black" d="M227,-84.93C227,-105.37 227,-135.8 227,-135.8 227,-135.8 526.28,-135.8 526.28,-135.8"/>
<polygon fill="black" stroke="black" points="526.28,-139.3 536.28,-135.8 526.28,-132.3 526.28,-139.3"/>
</g>
<!-- TraductionsComponent -->
<g id="node7" class="node">
<title>TraductionsComponent</title>
<polygon fill="#ffffb3" stroke="black" points="172.2,-84.8 23.8,-84.8 23.8,-48.8 172.2,-48.8 172.2,-84.8"/>
<text text-anchor="middle" x="98" y="-62.6" font-family="Times,serif" font-size="14.00">TraductionsComponent</text>
</g>
<!-- TraductionsComponent&#45;&gt;GestionModule -->
<g id="edge7" class="edge">
<title>TraductionsComponent&#45;&gt;GestionModule</title>
<path fill="none" stroke="black" d="M98,-84.81C98,-107.29 98,-142.8 98,-142.8 98,-142.8 526.03,-142.8 526.03,-142.8"/>
<polygon fill="black" stroke="black" points="526.03,-146.3 536.03,-142.8 526.03,-139.3 526.03,-146.3"/>
</g>
<!-- GestionRoutingModule -->
<g id="node9" class="node">
<title>GestionRoutingModule</title>
<polygon fill="#8dd3c7" stroke="black" points="1205.22,-84.8 1202.22,-88.8 1181.22,-88.8 1178.22,-84.8 1056.78,-84.8 1056.78,-48.8 1205.22,-48.8 1205.22,-84.8"/>
<text text-anchor="middle" x="1131" y="-62.6" font-family="Times,serif" font-size="14.00">GestionRoutingModule</text>
</g>
<!-- GestionRoutingModule&#45;&gt;GestionModule -->
<g id="edge8" class="edge">
<title>GestionRoutingModule&#45;&gt;GestionModule</title>
<path fill="none" stroke="black" d="M1131,-84.81C1131,-107.29 1131,-142.8 1131,-142.8 1131,-142.8 649.57,-142.8 649.57,-142.8"/>
<polygon fill="black" stroke="black" points="649.57,-139.3 639.57,-142.8 649.57,-146.3 649.57,-139.3"/>
</g>
<!-- UtilsModule -->
<g id="node10" class="node">
<title>UtilsModule</title>
<polygon fill="#8dd3c7" stroke="black" points="1038.28,-84.8 1035.28,-88.8 1014.28,-88.8 1011.28,-84.8 951.72,-84.8 951.72,-48.8 1038.28,-48.8 1038.28,-84.8"/>
<text text-anchor="middle" x="995" y="-62.6" font-family="Times,serif" font-size="14.00">UtilsModule</text>
</g>
<!-- UtilsModule&#45;&gt;GestionModule -->
<g id="edge9" class="edge">
<title>UtilsModule&#45;&gt;GestionModule</title>
<path fill="none" stroke="black" d="M995,-84.93C995,-105.37 995,-135.8 995,-135.8 995,-135.8 649.96,-135.8 649.96,-135.8"/>
<polygon fill="black" stroke="black" points="649.96,-132.3 639.96,-135.8 649.96,-139.3 649.96,-132.3"/>
</g>
</g>
</svg>
