<?xml version="1.0" encoding="UTF-8" standalone="no"?>
<!DOCTYPE svg PUBLIC "-//W3C//DTD SVG 1.1//EN"
 "http://www.w3.org/Graphics/SVG/1.1/DTD/svg11.dtd">
<!-- Generated by graphviz version 5.0.0 (20220707.1540)
 -->
<!-- Title: dependencies Pages: 1 -->
<svg width="1374pt" height="174pt"
 viewBox="0.00 0.00 1374.00 173.80" xmlns="http://www.w3.org/2000/svg" xmlns:xlink="http://www.w3.org/1999/xlink">
<g id="graph0" class="graph" transform="scale(1 1) rotate(0) translate(4 169.8)">
<title>dependencies</title>
<polygon fill="white" stroke="transparent" points="-4,4 -4,-169.8 1370,-169.8 1370,4 -4,4"/>
<text text-anchor="middle" x="683" y="-8.2" font-family="sans-serif" font-size="14.00">dependencies</text>
<g id="clust1" class="cluster">
<title>cluster_GestionModule</title>
<polygon fill="none" stroke="black" stroke-dasharray="1,5" points="8,-32.8 8,-157.8 1358,-157.8 1358,-32.8 8,-32.8"/>
</g>
<g id="clust11" class="cluster">
<title>cluster_GestionModule_imports</title>
<polygon fill="none" stroke="black" points="1081,-40.8 1081,-92.8 1350,-92.8 1350,-40.8 1081,-40.8"/>
</g>
<g id="clust2" class="cluster">
<title>cluster_GestionModule_declarations</title>
<polygon fill="none" stroke="black" points="16,-40.8 16,-92.8 1073,-92.8 1073,-40.8 16,-40.8"/>
</g>
<!-- AccesPipe -->
<g id="node1" class="node">
<title>AccesPipe</title>
<polygon fill="#ffffb3" stroke="black" points="1064.59,-84.8 989.41,-84.8 989.41,-48.8 1064.59,-48.8 1064.59,-84.8"/>
<text text-anchor="middle" x="1027" y="-62.6" font-family="Times,serif" font-size="14.00">AccesPipe</text>
</g>
<!-- GestionModule -->
<g id="node9" class="node">
<title>GestionModule</title>
<polygon fill="#8dd3c7" stroke="black" points="705.6,-149.8 702.6,-153.8 681.6,-153.8 678.6,-149.8 602.4,-149.8 602.4,-113.8 705.6,-113.8 705.6,-149.8"/>
<text text-anchor="middle" x="654" y="-127.6" font-family="Times,serif" font-size="14.00">GestionModule</text>
</g>
<!-- AccesPipe&#45;&gt;GestionModule -->
<g id="edge1" class="edge">
<title>AccesPipe&#45;&gt;GestionModule</title>
<path fill="none" stroke="black" d="M1027,-85.07C1027,-103.36 1027,-128.8 1027,-128.8 1027,-128.8 715.86,-128.8 715.86,-128.8"/>
<polygon fill="black" stroke="black" points="715.86,-125.3 705.86,-128.8 715.86,-132.3 715.86,-125.3"/>
</g>
<!-- AdminAccueilComponent -->
<g id="node2" class="node">
<title>AdminAccueilComponent</title>
<polygon fill="#ffffb3" stroke="black" points="971.75,-84.8 808.25,-84.8 808.25,-48.8 971.75,-48.8 971.75,-84.8"/>
<text text-anchor="middle" x="890" y="-62.6" font-family="Times,serif" font-size="14.00">AdminAccueilComponent</text>
</g>
<!-- AdminAccueilComponent&#45;&gt;GestionModule -->
<g id="edge2" class="edge">
<title>AdminAccueilComponent&#45;&gt;GestionModule</title>
<path fill="none" stroke="black" d="M890,-84.81C890,-100.85 890,-121.8 890,-121.8 890,-121.8 715.79,-121.8 715.79,-121.8"/>
<polygon fill="black" stroke="black" points="715.79,-118.3 705.79,-121.8 715.79,-125.3 715.79,-118.3"/>
</g>
<!-- DataMajComponent -->
<g id="node3" class="node">
<title>DataMajComponent</title>
<polygon fill="#ffffb3" stroke="black" points="790.31,-84.8 659.69,-84.8 659.69,-48.8 790.31,-48.8 790.31,-84.8"/>
<text text-anchor="middle" x="725" y="-62.6" font-family="Times,serif" font-size="14.00">DataMajComponent</text>
</g>
<!-- DataMajComponent&#45;&gt;GestionModule -->
<g id="edge3" class="edge">
<title>DataMajComponent&#45;&gt;GestionModule</title>
<path fill="none" stroke="black" d="M682.7,-84.91C682.7,-84.91 682.7,-103.79 682.7,-103.79"/>
<polygon fill="black" stroke="black" points="679.2,-103.79 682.7,-113.79 686.2,-103.79 679.2,-103.79"/>
</g>
<!-- ProfilsComponent -->
<g id="node4" class="node">
<title>ProfilsComponent</title>
<polygon fill="#ffffb3" stroke="black" points="642.17,-84.8 523.83,-84.8 523.83,-48.8 642.17,-48.8 642.17,-84.8"/>
<text text-anchor="middle" x="583" y="-62.6" font-family="Times,serif" font-size="14.00">ProfilsComponent</text>
</g>
<!-- ProfilsComponent&#45;&gt;GestionModule -->
<g id="edge4" class="edge">
<title>ProfilsComponent&#45;&gt;GestionModule</title>
<path fill="none" stroke="black" d="M622.39,-84.91C622.39,-84.91 622.39,-103.79 622.39,-103.79"/>
<polygon fill="black" stroke="black" points="618.89,-103.79 622.39,-113.79 625.89,-103.79 618.89,-103.79"/>
</g>
<!-- PromoComponent -->
<g id="node5" class="node">
<title>PromoComponent</title>
<polygon fill="#ffffb3" stroke="black" points="505.17,-84.8 386.83,-84.8 386.83,-48.8 505.17,-48.8 505.17,-84.8"/>
<text text-anchor="middle" x="446" y="-62.6" font-family="Times,serif" font-size="14.00">PromoComponent</text>
</g>
<!-- PromoComponent&#45;&gt;GestionModule -->
<g id="edge5" class="edge">
<title>PromoComponent&#45;&gt;GestionModule</title>
<path fill="none" stroke="black" d="M446,-84.81C446,-100.85 446,-121.8 446,-121.8 446,-121.8 592.32,-121.8 592.32,-121.8"/>
<polygon fill="black" stroke="black" points="592.32,-125.3 602.32,-121.8 592.32,-118.3 592.32,-125.3"/>
</g>
<!-- SetStatePipe -->
<g id="node6" class="node">
<title>SetStatePipe</title>
<polygon fill="#ffffb3" stroke="black" points="368.27,-84.8 281.73,-84.8 281.73,-48.8 368.27,-48.8 368.27,-84.8"/>
<text text-anchor="middle" x="325" y="-62.6" font-family="Times,serif" font-size="14.00">SetStatePipe</text>
</g>
<!-- SetStatePipe&#45;&gt;GestionModule -->
<g id="edge6" class="edge">
<title>SetStatePipe&#45;&gt;GestionModule</title>
<path fill="none" stroke="black" d="M325,-85.07C325,-103.36 325,-128.8 325,-128.8 325,-128.8 592.23,-128.8 592.23,-128.8"/>
<polygon fill="black" stroke="black" points="592.23,-132.3 602.23,-128.8 592.23,-125.3 592.23,-132.3"/>
</g>
<!-- StatutPipe -->
<g id="node7" class="node">
<title>StatutPipe</title>
<polygon fill="#ffffb3" stroke="black" points="263.56,-84.8 190.44,-84.8 190.44,-48.8 263.56,-48.8 263.56,-84.8"/>
<text text-anchor="middle" x="227" y="-62.6" font-family="Times,serif" font-size="14.00">StatutPipe</text>
</g>
<!-- StatutPipe&#45;&gt;GestionModule -->
<g id="edge7" class="edge">
<title>StatutPipe&#45;&gt;GestionModule</title>
<path fill="none" stroke="black" d="M227,-84.93C227,-105.37 227,-135.8 227,-135.8 227,-135.8 592.07,-135.8 592.07,-135.8"/>
<polygon fill="black" stroke="black" points="592.07,-139.3 602.07,-135.8 592.07,-132.3 592.07,-139.3"/>
</g>
<!-- TraductionsComponent -->
<g id="node8" class="node">
<title>TraductionsComponent</title>
<polygon fill="#ffffb3" stroke="black" points="172.2,-84.8 23.8,-84.8 23.8,-48.8 172.2,-48.8 172.2,-84.8"/>
<text text-anchor="middle" x="98" y="-62.6" font-family="Times,serif" font-size="14.00">TraductionsComponent</text>
</g>
<!-- TraductionsComponent&#45;&gt;GestionModule -->
<g id="edge8" class="edge">
<title>TraductionsComponent&#45;&gt;GestionModule</title>
<path fill="none" stroke="black" d="M98,-84.81C98,-107.29 98,-142.8 98,-142.8 98,-142.8 592.19,-142.8 592.19,-142.8"/>
<polygon fill="black" stroke="black" points="592.19,-146.3 602.19,-142.8 592.19,-139.3 592.19,-146.3"/>
</g>
<!-- GestionRoutingModule -->
<g id="node10" class="node">
<title>GestionRoutingModule</title>
<polygon fill="#8dd3c7" stroke="black" points="1342.22,-84.8 1339.22,-88.8 1318.22,-88.8 1315.22,-84.8 1193.78,-84.8 1193.78,-48.8 1342.22,-48.8 1342.22,-84.8"/>
<text text-anchor="middle" x="1268" y="-62.6" font-family="Times,serif" font-size="14.00">GestionRoutingModule</text>
</g>
<!-- GestionRoutingModule&#45;&gt;GestionModule -->
<g id="edge9" class="edge">
<title>GestionRoutingModule&#45;&gt;GestionModule</title>
<path fill="none" stroke="black" d="M1268,-84.81C1268,-107.29 1268,-142.8 1268,-142.8 1268,-142.8 715.56,-142.8 715.56,-142.8"/>
<polygon fill="black" stroke="black" points="715.56,-139.3 705.56,-142.8 715.56,-146.3 715.56,-139.3"/>
</g>
<!-- UtilsModule -->
<g id="node11" class="node">
<title>UtilsModule</title>
<polygon fill="#8dd3c7" stroke="black" points="1175.28,-84.8 1172.28,-88.8 1151.28,-88.8 1148.28,-84.8 1088.72,-84.8 1088.72,-48.8 1175.28,-48.8 1175.28,-84.8"/>
<text text-anchor="middle" x="1132" y="-62.6" font-family="Times,serif" font-size="14.00">UtilsModule</text>
</g>
<!-- UtilsModule&#45;&gt;GestionModule -->
<g id="edge10" class="edge">
<title>UtilsModule&#45;&gt;GestionModule</title>
<path fill="none" stroke="black" d="M1132,-84.93C1132,-105.37 1132,-135.8 1132,-135.8 1132,-135.8 715.61,-135.8 715.61,-135.8"/>
<polygon fill="black" stroke="black" points="715.61,-132.3 705.61,-135.8 715.61,-139.3 715.61,-132.3"/>
</g>
</g>
</svg>
