<?xml version="1.0" encoding="UTF-8" standalone="no"?>
<!DOCTYPE svg PUBLIC "-//W3C//DTD SVG 1.1//EN"
 "http://www.w3.org/Graphics/SVG/1.1/DTD/svg11.dtd">
<!-- Generated by graphviz version 5.0.0 (20220707.1540)
 -->
<!-- Title: dependencies Pages: 1 -->
<svg width="3865pt" height="247pt"
 viewBox="0.00 0.00 3865.00 246.80" xmlns="http://www.w3.org/2000/svg" xmlns:xlink="http://www.w3.org/1999/xlink">
<g id="graph0" class="graph" transform="scale(1 1) rotate(0) translate(4 242.8)">
<title>dependencies</title>
<polygon fill="white" stroke="transparent" points="-4,4 -4,-242.8 3861,-242.8 3861,4 -4,4"/>
<text text-anchor="middle" x="1928.5" y="-8.2" font-family="sans-serif" font-size="14.00">dependencies</text>
<g id="clust1" class="cluster">
<title>cluster_AppModule</title>
<polygon fill="none" stroke="black" stroke-dasharray="1,5" points="8,-32.8 8,-230.8 3849,-230.8 3849,-32.8 8,-32.8"/>
</g>
<g id="clust2" class="cluster">
<title>cluster_AppModule_declarations</title>
<polygon fill="none" stroke="black" points="2831,-40.8 2831,-92.8 3841,-92.8 3841,-40.8 2831,-40.8"/>
</g>
<g id="clust13" class="cluster">
<title>cluster_AppModule_providers</title>
<polygon fill="none" stroke="black" points="2361,-40.8 2361,-92.8 2823,-92.8 2823,-40.8 2361,-40.8"/>
</g>
<g id="clust10" class="cluster">
<title>cluster_AppModule_imports</title>
<polygon fill="none" stroke="black" points="16,-40.8 16,-92.8 2353,-92.8 2353,-40.8 16,-40.8"/>
</g>
<g id="clust12" class="cluster">
<title>cluster_AppModule_bootstrap</title>
<polygon fill="none" stroke="black" points="2299,-170.8 2299,-222.8 2423,-222.8 2423,-170.8 2299,-170.8"/>
</g>
<!-- AppComponent -->
<g id="node1" class="node">
<title>AppComponent</title>
<polygon fill="#ffffb3" stroke="black" points="3832.94,-84.8 3727.06,-84.8 3727.06,-48.8 3832.94,-48.8 3832.94,-84.8"/>
<text text-anchor="middle" x="3780" y="-62.6" font-family="Times,serif" font-size="14.00">AppComponent</text>
</g>
<!-- AppModule -->
<g id="node8" class="node">
<title>AppModule</title>
<polygon fill="#8dd3c7" stroke="black" points="2402.66,-149.8 2399.66,-153.8 2378.66,-153.8 2375.66,-149.8 2319.34,-149.8 2319.34,-113.8 2402.66,-113.8 2402.66,-149.8"/>
<text text-anchor="middle" x="2361" y="-127.6" font-family="Times,serif" font-size="14.00">AppModule</text>
</g>
<!-- AppComponent&#45;&gt;AppModule -->
<g id="edge1" class="edge">
<title>AppComponent&#45;&gt;AppModule</title>
<path fill="none" stroke="black" d="M3780,-84.95C3780,-108.56 3780,-146.8 3780,-146.8 3780,-146.8 2412.7,-146.8 2412.7,-146.8"/>
<polygon fill="black" stroke="black" points="2412.7,-143.3 2402.7,-146.8 2412.7,-150.3 2412.7,-143.3"/>
</g>
<!-- CompteComponent -->
<g id="node2" class="node">
<title>CompteComponent</title>
<polygon fill="#ffffb3" stroke="black" points="3708.66,-84.8 3583.34,-84.8 3583.34,-48.8 3708.66,-48.8 3708.66,-84.8"/>
<text text-anchor="middle" x="3646" y="-62.6" font-family="Times,serif" font-size="14.00">CompteComponent</text>
</g>
<!-- CompteComponent&#45;&gt;AppModule -->
<g id="edge2" class="edge">
<title>CompteComponent&#45;&gt;AppModule</title>
<path fill="none" stroke="black" d="M3646,-84.81C3646,-107.29 3646,-142.8 3646,-142.8 3646,-142.8 2413.02,-142.8 2413.02,-142.8"/>
<polygon fill="black" stroke="black" points="2413.02,-139.3 2403.02,-142.8 2413.02,-146.3 2413.02,-139.3"/>
</g>
<!-- ConnexionComponent -->
<g id="node3" class="node">
<title>ConnexionComponent</title>
<polygon fill="#ffffb3" stroke="black" points="3565.27,-84.8 3422.73,-84.8 3422.73,-48.8 3565.27,-48.8 3565.27,-84.8"/>
<text text-anchor="middle" x="3494" y="-62.6" font-family="Times,serif" font-size="14.00">ConnexionComponent</text>
</g>
<!-- ConnexionComponent&#45;&gt;AppModule -->
<g id="edge3" class="edge">
<title>ConnexionComponent&#45;&gt;AppModule</title>
<path fill="none" stroke="black" d="M3494,-84.84C3494,-106.46 3494,-139.8 3494,-139.8 3494,-139.8 2412.67,-139.8 2412.67,-139.8"/>
<polygon fill="black" stroke="black" points="2412.67,-136.3 2402.67,-139.8 2412.67,-143.3 2412.67,-136.3"/>
</g>
<!-- ErreurComponent -->
<g id="node4" class="node">
<title>ErreurComponent</title>
<polygon fill="#ffffb3" stroke="black" points="3404.58,-84.8 3287.42,-84.8 3287.42,-48.8 3404.58,-48.8 3404.58,-84.8"/>
<text text-anchor="middle" x="3346" y="-62.6" font-family="Times,serif" font-size="14.00">ErreurComponent</text>
</g>
<!-- ErreurComponent&#45;&gt;AppModule -->
<g id="edge4" class="edge">
<title>ErreurComponent&#45;&gt;AppModule</title>
<path fill="none" stroke="black" d="M3346,-84.93C3346,-105.37 3346,-135.8 3346,-135.8 3346,-135.8 2412.7,-135.8 2412.7,-135.8"/>
<polygon fill="black" stroke="black" points="2412.7,-132.3 2402.7,-135.8 2412.7,-139.3 2412.7,-132.3"/>
</g>
<!-- MentionsComponent -->
<g id="node5" class="node">
<title>MentionsComponent</title>
<polygon fill="#ffffb3" stroke="black" points="3269.22,-84.8 3134.78,-84.8 3134.78,-48.8 3269.22,-48.8 3269.22,-84.8"/>
<text text-anchor="middle" x="3202" y="-62.6" font-family="Times,serif" font-size="14.00">MentionsComponent</text>
</g>
<!-- MentionsComponent&#45;&gt;AppModule -->
<g id="edge5" class="edge">
<title>MentionsComponent&#45;&gt;AppModule</title>
<path fill="none" stroke="black" d="M3202,-84.91C3202,-104.14 3202,-131.8 3202,-131.8 3202,-131.8 2412.71,-131.8 2412.71,-131.8"/>
<polygon fill="black" stroke="black" points="2412.71,-128.3 2402.71,-131.8 2412.71,-135.3 2412.71,-128.3"/>
</g>
<!-- RgpdComponent -->
<g id="node6" class="node">
<title>RgpdComponent</title>
<polygon fill="#ffffb3" stroke="black" points="3116.67,-84.8 3005.33,-84.8 3005.33,-48.8 3116.67,-48.8 3116.67,-84.8"/>
<text text-anchor="middle" x="3061" y="-62.6" font-family="Times,serif" font-size="14.00">RgpdComponent</text>
</g>
<!-- RgpdComponent&#45;&gt;AppModule -->
<g id="edge6" class="edge">
<title>RgpdComponent&#45;&gt;AppModule</title>
<path fill="none" stroke="black" d="M3061,-85.07C3061,-103.36 3061,-128.8 3061,-128.8 3061,-128.8 2412.69,-128.8 2412.69,-128.8"/>
<polygon fill="black" stroke="black" points="2412.69,-125.3 2402.69,-128.8 2412.69,-132.3 2412.69,-125.3"/>
</g>
<!-- VerificationComponent -->
<g id="node7" class="node">
<title>VerificationComponent</title>
<polygon fill="#ffffb3" stroke="black" points="2987.47,-84.8 2838.53,-84.8 2838.53,-48.8 2987.47,-48.8 2987.47,-84.8"/>
<text text-anchor="middle" x="2913" y="-62.6" font-family="Times,serif" font-size="14.00">VerificationComponent</text>
</g>
<!-- VerificationComponent&#45;&gt;AppModule -->
<g id="edge7" class="edge">
<title>VerificationComponent&#45;&gt;AppModule</title>
<path fill="none" stroke="black" d="M2913,-84.83C2913,-101.86 2913,-124.8 2913,-124.8 2913,-124.8 2412.94,-124.8 2412.94,-124.8"/>
<polygon fill="black" stroke="black" points="2412.94,-121.3 2402.94,-124.8 2412.94,-128.3 2412.94,-121.3"/>
</g>
<!-- AppComponent  -->
<g id="node19" class="node">
<title>AppComponent </title>
<polygon fill="#80b1d3" stroke="black" points="2415.44,-214.8 2306.56,-214.8 2306.56,-178.8 2415.44,-178.8 2415.44,-214.8"/>
<text text-anchor="middle" x="2361" y="-192.6" font-family="Times,serif" font-size="14.00">AppComponent </text>
</g>
<!-- AppModule&#45;&gt;AppComponent  -->
<g id="edge18" class="edge">
<title>AppModule&#45;&gt;AppComponent </title>
<path fill="none" stroke="black" stroke-dasharray="1,5" d="M2361,-149.91C2361,-149.91 2361,-168.79 2361,-168.79"/>
<polygon fill="black" stroke="black" points="2357.5,-168.79 2361,-178.79 2364.5,-168.79 2357.5,-168.79"/>
</g>
<!-- AppRoutingModule -->
<g id="node9" class="node">
<title>AppRoutingModule</title>
<polygon fill="#8dd3c7" stroke="black" points="2345.28,-84.8 2342.28,-88.8 2321.28,-88.8 2318.28,-84.8 2216.72,-84.8 2216.72,-48.8 2345.28,-48.8 2345.28,-84.8"/>
<text text-anchor="middle" x="2281" y="-62.6" font-family="Times,serif" font-size="14.00">AppRoutingModule</text>
</g>
<!-- AppRoutingModule&#45;&gt;AppModule -->
<g id="edge8" class="edge">
<title>AppRoutingModule&#45;&gt;AppModule</title>
<path fill="none" stroke="black" d="M2332.28,-84.91C2332.28,-84.91 2332.28,-103.79 2332.28,-103.79"/>
<polygon fill="black" stroke="black" points="2328.78,-103.79 2332.28,-113.79 2335.78,-103.79 2328.78,-103.79"/>
</g>
<!-- UtilsModule -->
<g id="node10" class="node">
<title>UtilsModule</title>
<polygon fill="#8dd3c7" stroke="black" points="2198.28,-84.8 2195.28,-88.8 2174.28,-88.8 2171.28,-84.8 2111.72,-84.8 2111.72,-48.8 2198.28,-48.8 2198.28,-84.8"/>
<text text-anchor="middle" x="2155" y="-62.6" font-family="Times,serif" font-size="14.00">UtilsModule</text>
</g>
<!-- UtilsModule&#45;&gt;AppModule -->
<g id="edge9" class="edge">
<title>UtilsModule&#45;&gt;AppModule</title>
<path fill="none" stroke="black" d="M2155,-84.92C2155,-99.58 2155,-117.8 2155,-117.8 2155,-117.8 2309.31,-117.8 2309.31,-117.8"/>
<polygon fill="black" stroke="black" points="2309.31,-121.3 2319.31,-117.8 2309.31,-114.3 2309.31,-121.3"/>
</g>
<!-- provideAuth(() =&gt; getAuth()) -->
<g id="node11" class="node">
<title>provideAuth(() =&gt; getAuth())</title>
<polygon fill="#8dd3c7" stroke="black" points="2093.13,-84.8 2090.13,-88.8 2069.13,-88.8 2066.13,-84.8 1910.87,-84.8 1910.87,-48.8 2093.13,-48.8 2093.13,-84.8"/>
<text text-anchor="middle" x="2002" y="-62.6" font-family="Times,serif" font-size="14.00">provideAuth(() =&gt; getAuth())</text>
</g>
<!-- provideAuth(() =&gt; getAuth())&#45;&gt;AppModule -->
<g id="edge10" class="edge">
<title>provideAuth(() =&gt; getAuth())&#45;&gt;AppModule</title>
<path fill="none" stroke="black" d="M2002,-84.81C2002,-100.85 2002,-121.8 2002,-121.8 2002,-121.8 2309.12,-121.8 2309.12,-121.8"/>
<polygon fill="black" stroke="black" points="2309.12,-125.3 2319.12,-121.8 2309.12,-118.3 2309.12,-125.3"/>
</g>
<!-- provideDatabase(() =&gt; getDatabase()) -->
<g id="node12" class="node">
<title>provideDatabase(() =&gt; getDatabase())</title>
<polygon fill="#8dd3c7" stroke="black" points="1892.74,-84.8 1889.74,-88.8 1868.74,-88.8 1865.74,-84.8 1663.26,-84.8 1663.26,-48.8 1892.74,-48.8 1892.74,-84.8"/>
<text text-anchor="middle" x="1778" y="-62.6" font-family="Times,serif" font-size="14.00">provideDatabase(() =&gt; getDatabase())</text>
</g>
<!-- provideDatabase(() =&gt; getDatabase())&#45;&gt;AppModule -->
<g id="edge11" class="edge">
<title>provideDatabase(() =&gt; getDatabase())&#45;&gt;AppModule</title>
<path fill="none" stroke="black" d="M1778,-84.83C1778,-101.86 1778,-124.8 1778,-124.8 1778,-124.8 2309.07,-124.8 2309.07,-124.8"/>
<polygon fill="black" stroke="black" points="2309.07,-128.3 2319.07,-124.8 2309.07,-121.3 2309.07,-128.3"/>
</g>
<!-- provideFirebaseApp(() =&gt; initializeApp(environment -->
<g id="node13" class="node">
<title>provideFirebaseApp(() =&gt; initializeApp(environment</title>
<polygon fill="#8dd3c7" stroke="black" points="1645.59,-84.8 1642.59,-88.8 1621.59,-88.8 1618.59,-84.8 1330.41,-84.8 1330.41,-48.8 1645.59,-48.8 1645.59,-84.8"/>
<text text-anchor="middle" x="1488" y="-62.6" font-family="Times,serif" font-size="14.00">provideFirebaseApp(() =&gt; initializeApp(environment</text>
</g>
<!-- provideFirebaseApp(() =&gt; initializeApp(environment&#45;&gt;AppModule -->
<g id="edge12" class="edge">
<title>provideFirebaseApp(() =&gt; initializeApp(environment&#45;&gt;AppModule</title>
<path fill="none" stroke="black" d="M1488,-85.07C1488,-103.36 1488,-128.8 1488,-128.8 1488,-128.8 2309.19,-128.8 2309.19,-128.8"/>
<polygon fill="black" stroke="black" points="2309.19,-132.3 2319.19,-128.8 2309.19,-125.3 2309.19,-132.3"/>
</g>
<!-- provideFirestore(() =&gt; getFirestore()) -->
<g id="node14" class="node">
<title>provideFirestore(() =&gt; getFirestore())</title>
<polygon fill="#8dd3c7" stroke="black" points="1312.16,-84.8 1309.16,-88.8 1288.16,-88.8 1285.16,-84.8 1085.84,-84.8 1085.84,-48.8 1312.16,-48.8 1312.16,-84.8"/>
<text text-anchor="middle" x="1199" y="-62.6" font-family="Times,serif" font-size="14.00">provideFirestore(() =&gt; getFirestore())</text>
</g>
<!-- provideFirestore(() =&gt; getFirestore())&#45;&gt;AppModule -->
<g id="edge13" class="edge">
<title>provideFirestore(() =&gt; getFirestore())&#45;&gt;AppModule</title>
<path fill="none" stroke="black" d="M1199,-84.91C1199,-104.14 1199,-131.8 1199,-131.8 1199,-131.8 2309.3,-131.8 2309.3,-131.8"/>
<polygon fill="black" stroke="black" points="2309.3,-135.3 2319.3,-131.8 2309.3,-128.3 2309.3,-135.3"/>
</g>
<!-- provideFunctions(() =&gt; getFunctions()) -->
<g id="node15" class="node">
<title>provideFunctions(() =&gt; getFunctions())</title>
<polygon fill="#8dd3c7" stroke="black" points="1067.59,-84.8 1064.59,-88.8 1043.59,-88.8 1040.59,-84.8 830.41,-84.8 830.41,-48.8 1067.59,-48.8 1067.59,-84.8"/>
<text text-anchor="middle" x="949" y="-62.6" font-family="Times,serif" font-size="14.00">provideFunctions(() =&gt; getFunctions())</text>
</g>
<!-- provideFunctions(() =&gt; getFunctions())&#45;&gt;AppModule -->
<g id="edge14" class="edge">
<title>provideFunctions(() =&gt; getFunctions())&#45;&gt;AppModule</title>
<path fill="none" stroke="black" d="M949,-84.93C949,-105.37 949,-135.8 949,-135.8 949,-135.8 2309.12,-135.8 2309.12,-135.8"/>
<polygon fill="black" stroke="black" points="2309.12,-139.3 2319.12,-135.8 2309.12,-132.3 2309.12,-139.3"/>
</g>
<!-- provideMessaging(() =&gt; getMessaging()) -->
<g id="node16" class="node">
<title>provideMessaging(() =&gt; getMessaging())</title>
<polygon fill="#8dd3c7" stroke="black" points="811.96,-84.8 808.96,-88.8 787.96,-88.8 784.96,-84.8 564.04,-84.8 564.04,-48.8 811.96,-48.8 811.96,-84.8"/>
<text text-anchor="middle" x="688" y="-62.6" font-family="Times,serif" font-size="14.00">provideMessaging(() =&gt; getMessaging())</text>
</g>
<!-- provideMessaging(() =&gt; getMessaging())&#45;&gt;AppModule -->
<g id="edge15" class="edge">
<title>provideMessaging(() =&gt; getMessaging())&#45;&gt;AppModule</title>
<path fill="none" stroke="black" d="M688,-84.84C688,-106.46 688,-139.8 688,-139.8 688,-139.8 2309.23,-139.8 2309.23,-139.8"/>
<polygon fill="black" stroke="black" points="2309.23,-143.3 2319.23,-139.8 2309.23,-136.3 2309.23,-143.3"/>
</g>
<!-- provideRemoteConfig(() =&gt; getRemoteConfig()) -->
<g id="node17" class="node">
<title>provideRemoteConfig(() =&gt; getRemoteConfig())</title>
<polygon fill="#8dd3c7" stroke="black" points="545.5,-84.8 542.5,-88.8 521.5,-88.8 518.5,-84.8 254.5,-84.8 254.5,-48.8 545.5,-48.8 545.5,-84.8"/>
<text text-anchor="middle" x="400" y="-62.6" font-family="Times,serif" font-size="14.00">provideRemoteConfig(() =&gt; getRemoteConfig())</text>
</g>
<!-- provideRemoteConfig(() =&gt; getRemoteConfig())&#45;&gt;AppModule -->
<g id="edge16" class="edge">
<title>provideRemoteConfig(() =&gt; getRemoteConfig())&#45;&gt;AppModule</title>
<path fill="none" stroke="black" d="M400,-84.81C400,-107.29 400,-142.8 400,-142.8 400,-142.8 2309.13,-142.8 2309.13,-142.8"/>
<polygon fill="black" stroke="black" points="2309.13,-146.3 2319.13,-142.8 2309.13,-139.3 2309.13,-146.3"/>
</g>
<!-- provideStorage(() =&gt; getStorage()) -->
<g id="node18" class="node">
<title>provideStorage(() =&gt; getStorage())</title>
<polygon fill="#8dd3c7" stroke="black" points="236.16,-84.8 233.16,-88.8 212.16,-88.8 209.16,-84.8 23.84,-84.8 23.84,-48.8 236.16,-48.8 236.16,-84.8"/>
<text text-anchor="middle" x="130" y="-62.6" font-family="Times,serif" font-size="14.00">provideStorage(() =&gt; getStorage())</text>
</g>
<!-- provideStorage(() =&gt; getStorage())&#45;&gt;AppModule -->
<g id="edge17" class="edge">
<title>provideStorage(() =&gt; getStorage())&#45;&gt;AppModule</title>
<path fill="none" stroke="black" d="M130,-84.95C130,-108.56 130,-146.8 130,-146.8 130,-146.8 2308.92,-146.8 2308.92,-146.8"/>
<polygon fill="black" stroke="black" points="2308.92,-150.3 2318.92,-146.8 2308.92,-143.3 2308.92,-150.3"/>
</g>
<!-- AuthInterceptor -->
<g id="node20" class="node">
<title>AuthInterceptor</title>
<ellipse fill="#fdb462" stroke="black" cx="2742" cy="-66.8" rx="72.92" ry="18"/>
<text text-anchor="middle" x="2742" y="-62.6" font-family="Times,serif" font-size="14.00">AuthInterceptor</text>
</g>
<!-- AuthInterceptor&#45;&gt;AppModule -->
<g id="edge19" class="edge">
<title>AuthInterceptor&#45;&gt;AppModule</title>
<path fill="none" stroke="black" d="M2742,-84.81C2742,-100.85 2742,-121.8 2742,-121.8 2742,-121.8 2412.86,-121.8 2412.86,-121.8"/>
<polygon fill="black" stroke="black" points="2412.86,-118.3 2402.86,-121.8 2412.86,-125.3 2412.86,-118.3"/>
</g>
<!-- AuthService -->
<g id="node21" class="node">
<title>AuthService</title>
<ellipse fill="#fdb462" stroke="black" cx="2592" cy="-66.8" rx="59.11" ry="18"/>
<text text-anchor="middle" x="2592" y="-62.6" font-family="Times,serif" font-size="14.00">AuthService</text>
</g>
<!-- AuthService&#45;&gt;AppModule -->
<g id="edge20" class="edge">
<title>AuthService&#45;&gt;AppModule</title>
<path fill="none" stroke="black" d="M2592,-84.92C2592,-99.58 2592,-117.8 2592,-117.8 2592,-117.8 2412.83,-117.8 2412.83,-117.8"/>
<polygon fill="black" stroke="black" points="2412.83,-114.3 2402.83,-117.8 2412.83,-121.3 2412.83,-114.3"/>
</g>
<!-- LanguesService -->
<g id="node22" class="node">
<title>LanguesService</title>
<ellipse fill="#fdb462" stroke="black" cx="2442" cy="-66.8" rx="72.92" ry="18"/>
<text text-anchor="middle" x="2442" y="-62.6" font-family="Times,serif" font-size="14.00">LanguesService</text>
</g>
<!-- LanguesService&#45;&gt;AppModule -->
<g id="edge21" class="edge">
<title>LanguesService&#45;&gt;AppModule</title>
<path fill="none" stroke="black" d="M2386.06,-78.42C2386.06,-78.42 2386.06,-103.65 2386.06,-103.65"/>
<polygon fill="black" stroke="black" points="2382.56,-103.65 2386.06,-113.65 2389.56,-103.65 2382.56,-103.65"/>
</g>
</g>
</svg>
