<?xml version="1.0" encoding="UTF-8" standalone="no"?>
<!DOCTYPE svg PUBLIC "-//W3C//DTD SVG 1.1//EN"
 "http://www.w3.org/Graphics/SVG/1.1/DTD/svg11.dtd">
<!-- Generated by graphviz version 3.0.0 (20220226.1711)
 -->
<!-- Title: dependencies Pages: 1 -->
<svg width="3960pt" height="247pt"
 viewBox="0.00 0.00 3960.00 246.80" xmlns="http://www.w3.org/2000/svg" xmlns:xlink="http://www.w3.org/1999/xlink">
<g id="graph0" class="graph" transform="scale(1 1) rotate(0) translate(4 242.8)">
<title>dependencies</title>
<polygon fill="white" stroke="transparent" points="-4,4 -4,-242.8 3956,-242.8 3956,4 -4,4"/>
<text text-anchor="middle" x="1976" y="-8.2" font-family="sans-serif" font-size="14.00">dependencies</text>
<g id="clust1" class="cluster">
<title>cluster_AppModule</title>
<polygon fill="none" stroke="black" stroke-dasharray="1,5" points="8,-32.8 8,-230.8 3944,-230.8 3944,-32.8 8,-32.8"/>
</g>
<g id="clust2" class="cluster">
<title>cluster_AppModule_declarations</title>
<polygon fill="none" stroke="black" points="2667,-40.8 2667,-92.8 3936,-92.8 3936,-40.8 2667,-40.8"/>
</g>
<g id="clust15" class="cluster">
<title>cluster_AppModule_providers</title>
<polygon fill="none" stroke="black" points="2361,-40.8 2361,-92.8 2659,-92.8 2659,-40.8 2361,-40.8"/>
</g>
<g id="clust12" class="cluster">
<title>cluster_AppModule_imports</title>
<polygon fill="none" stroke="black" points="16,-40.8 16,-92.8 2353,-92.8 2353,-40.8 16,-40.8"/>
</g>
<g id="clust14" class="cluster">
<title>cluster_AppModule_bootstrap</title>
<polygon fill="none" stroke="black" points="2380,-170.8 2380,-222.8 2504,-222.8 2504,-170.8 2380,-170.8"/>
</g>
<!-- AppComponent -->
<g id="node1" class="node">
<title>AppComponent</title>
<polygon fill="#ffffb3" stroke="black" points="3927.94,-84.8 3822.06,-84.8 3822.06,-48.8 3927.94,-48.8 3927.94,-84.8"/>
<text text-anchor="middle" x="3875" y="-62.6" font-family="Times,serif" font-size="14.00">AppComponent</text>
</g>
<!-- AppModule -->
<g id="node10" class="node">
<title>AppModule</title>
<polygon fill="#8dd3c7" stroke="black" points="2483.66,-149.8 2480.66,-153.8 2459.66,-153.8 2456.66,-149.8 2400.34,-149.8 2400.34,-113.8 2483.66,-113.8 2483.66,-149.8"/>
<text text-anchor="middle" x="2442" y="-127.6" font-family="Times,serif" font-size="14.00">AppModule</text>
</g>
<!-- AppComponent&#45;&gt;AppModule -->
<g id="edge1" class="edge">
<title>AppComponent&#45;&gt;AppModule</title>
<path fill="none" stroke="black" d="M3875,-84.95C3875,-108.56 3875,-146.8 3875,-146.8 3875,-146.8 2493.73,-146.8 2493.73,-146.8"/>
<polygon fill="black" stroke="black" points="2493.73,-143.3 2483.73,-146.8 2493.73,-150.3 2493.73,-143.3"/>
</g>
<!-- CompteComponent -->
<g id="node2" class="node">
<title>CompteComponent</title>
<polygon fill="#ffffb3" stroke="black" points="3803.66,-84.8 3678.34,-84.8 3678.34,-48.8 3803.66,-48.8 3803.66,-84.8"/>
<text text-anchor="middle" x="3741" y="-62.6" font-family="Times,serif" font-size="14.00">CompteComponent</text>
</g>
<!-- CompteComponent&#45;&gt;AppModule -->
<g id="edge2" class="edge">
<title>CompteComponent&#45;&gt;AppModule</title>
<path fill="none" stroke="black" d="M3741,-85.05C3741,-107.82 3741,-143.8 3741,-143.8 3741,-143.8 2493.75,-143.8 2493.75,-143.8"/>
<polygon fill="black" stroke="black" points="2493.75,-140.3 2483.75,-143.8 2493.75,-147.3 2493.75,-140.3"/>
</g>
<!-- ConnexionComponent -->
<g id="node3" class="node">
<title>ConnexionComponent</title>
<polygon fill="#ffffb3" stroke="black" points="3660.27,-84.8 3517.73,-84.8 3517.73,-48.8 3660.27,-48.8 3660.27,-84.8"/>
<text text-anchor="middle" x="3589" y="-62.6" font-family="Times,serif" font-size="14.00">ConnexionComponent</text>
</g>
<!-- ConnexionComponent&#45;&gt;AppModule -->
<g id="edge3" class="edge">
<title>ConnexionComponent&#45;&gt;AppModule</title>
<path fill="none" stroke="black" d="M3589,-85.09C3589,-107.01 3589,-140.8 3589,-140.8 3589,-140.8 2493.84,-140.8 2493.84,-140.8"/>
<polygon fill="black" stroke="black" points="2493.84,-137.3 2483.84,-140.8 2493.84,-144.3 2493.84,-137.3"/>
</g>
<!-- ContactComponent -->
<g id="node4" class="node">
<title>ContactComponent</title>
<polygon fill="#ffffb3" stroke="black" points="3499.38,-84.8 3374.62,-84.8 3374.62,-48.8 3499.38,-48.8 3499.38,-84.8"/>
<text text-anchor="middle" x="3437" y="-62.6" font-family="Times,serif" font-size="14.00">ContactComponent</text>
</g>
<!-- ContactComponent&#45;&gt;AppModule -->
<g id="edge4" class="edge">
<title>ContactComponent&#45;&gt;AppModule</title>
<path fill="none" stroke="black" d="M3437,-84.83C3437,-105.57 3437,-136.8 3437,-136.8 3437,-136.8 2493.8,-136.8 2493.8,-136.8"/>
<polygon fill="black" stroke="black" points="2493.8,-133.3 2483.8,-136.8 2493.8,-140.3 2493.8,-133.3"/>
</g>
<!-- ErreurComponent -->
<g id="node5" class="node">
<title>ErreurComponent</title>
<polygon fill="#ffffb3" stroke="black" points="3356.58,-84.8 3239.42,-84.8 3239.42,-48.8 3356.58,-48.8 3356.58,-84.8"/>
<text text-anchor="middle" x="3298" y="-62.6" font-family="Times,serif" font-size="14.00">ErreurComponent</text>
</g>
<!-- ErreurComponent&#45;&gt;AppModule -->
<g id="edge5" class="edge">
<title>ErreurComponent&#45;&gt;AppModule</title>
<path fill="none" stroke="black" d="M3298,-85.11C3298,-104.95 3298,-133.8 3298,-133.8 3298,-133.8 2493.87,-133.8 2493.87,-133.8"/>
<polygon fill="black" stroke="black" points="2493.87,-130.3 2483.87,-133.8 2493.87,-137.3 2493.87,-130.3"/>
</g>
<!-- MentionsComponent -->
<g id="node6" class="node">
<title>MentionsComponent</title>
<polygon fill="#ffffb3" stroke="black" points="3221.22,-84.8 3086.78,-84.8 3086.78,-48.8 3221.22,-48.8 3221.22,-84.8"/>
<text text-anchor="middle" x="3154" y="-62.6" font-family="Times,serif" font-size="14.00">MentionsComponent</text>
</g>
<!-- MentionsComponent&#45;&gt;AppModule -->
<g id="edge6" class="edge">
<title>MentionsComponent&#45;&gt;AppModule</title>
<path fill="none" stroke="black" d="M3154,-84.97C3154,-103.89 3154,-130.8 3154,-130.8 3154,-130.8 2493.88,-130.8 2493.88,-130.8"/>
<polygon fill="black" stroke="black" points="2493.88,-127.3 2483.88,-130.8 2493.88,-134.3 2493.88,-127.3"/>
</g>
<!-- OublieComponent -->
<g id="node7" class="node">
<title>OublieComponent</title>
<polygon fill="#ffffb3" stroke="black" points="3068.94,-84.8 2949.06,-84.8 2949.06,-48.8 3068.94,-48.8 3068.94,-84.8"/>
<text text-anchor="middle" x="3009" y="-62.6" font-family="Times,serif" font-size="14.00">OublieComponent</text>
</g>
<!-- OublieComponent&#45;&gt;AppModule -->
<g id="edge7" class="edge">
<title>OublieComponent&#45;&gt;AppModule</title>
<path fill="none" stroke="black" d="M3009,-85.1C3009,-103.07 3009,-127.8 3009,-127.8 3009,-127.8 2493.69,-127.8 2493.69,-127.8"/>
<polygon fill="black" stroke="black" points="2493.69,-124.3 2483.69,-127.8 2493.69,-131.3 2493.69,-124.3"/>
</g>
<!-- RgpdComponent -->
<g id="node8" class="node">
<title>RgpdComponent</title>
<polygon fill="#ffffb3" stroke="black" points="2930.67,-84.8 2819.33,-84.8 2819.33,-48.8 2930.67,-48.8 2930.67,-84.8"/>
<text text-anchor="middle" x="2875" y="-62.6" font-family="Times,serif" font-size="14.00">RgpdComponent</text>
</g>
<!-- RgpdComponent&#45;&gt;AppModule -->
<g id="edge8" class="edge">
<title>RgpdComponent&#45;&gt;AppModule</title>
<path fill="none" stroke="black" d="M2875,-84.84C2875,-101.53 2875,-123.8 2875,-123.8 2875,-123.8 2493.91,-123.8 2493.91,-123.8"/>
<polygon fill="black" stroke="black" points="2493.91,-120.3 2483.91,-123.8 2493.91,-127.3 2493.91,-120.3"/>
</g>
<!-- SupportComponent -->
<g id="node9" class="node">
<title>SupportComponent</title>
<polygon fill="#ffffb3" stroke="black" points="2800.67,-84.8 2675.33,-84.8 2675.33,-48.8 2800.67,-48.8 2800.67,-84.8"/>
<text text-anchor="middle" x="2738" y="-62.6" font-family="Times,serif" font-size="14.00">SupportComponent</text>
</g>
<!-- SupportComponent&#45;&gt;AppModule -->
<g id="edge9" class="edge">
<title>SupportComponent&#45;&gt;AppModule</title>
<path fill="none" stroke="black" d="M2738,-85.08C2738,-100.75 2738,-120.8 2738,-120.8 2738,-120.8 2493.78,-120.8 2493.78,-120.8"/>
<polygon fill="black" stroke="black" points="2493.78,-117.3 2483.78,-120.8 2493.78,-124.3 2493.78,-117.3"/>
</g>
<!-- AppComponent  -->
<g id="node21" class="node">
<title>AppComponent </title>
<polygon fill="#80b1d3" stroke="black" points="2496.44,-214.8 2387.56,-214.8 2387.56,-178.8 2496.44,-178.8 2496.44,-214.8"/>
<text text-anchor="middle" x="2442" y="-192.6" font-family="Times,serif" font-size="14.00">AppComponent </text>
</g>
<!-- AppModule&#45;&gt;AppComponent  -->
<g id="edge20" class="edge">
<title>AppModule&#45;&gt;AppComponent </title>
<path fill="none" stroke="black" stroke-dasharray="1,5" d="M2442,-149.91C2442,-149.91 2442,-168.79 2442,-168.79"/>
<polygon fill="black" stroke="black" points="2438.5,-168.79 2442,-178.79 2445.5,-168.79 2438.5,-168.79"/>
</g>
<!-- AppRoutingModule -->
<g id="node11" class="node">
<title>AppRoutingModule</title>
<polygon fill="#8dd3c7" stroke="black" points="2345.28,-84.8 2342.28,-88.8 2321.28,-88.8 2318.28,-84.8 2216.72,-84.8 2216.72,-48.8 2345.28,-48.8 2345.28,-84.8"/>
<text text-anchor="middle" x="2281" y="-62.6" font-family="Times,serif" font-size="14.00">AppRoutingModule</text>
</g>
<!-- AppRoutingModule&#45;&gt;AppModule -->
<g id="edge10" class="edge">
<title>AppRoutingModule&#45;&gt;AppModule</title>
<path fill="none" stroke="black" d="M2281,-84.92C2281,-99.58 2281,-117.8 2281,-117.8 2281,-117.8 2390.12,-117.8 2390.12,-117.8"/>
<polygon fill="black" stroke="black" points="2390.12,-121.3 2400.12,-117.8 2390.12,-114.3 2390.12,-121.3"/>
</g>
<!-- UtilsModule -->
<g id="node12" class="node">
<title>UtilsModule</title>
<polygon fill="#8dd3c7" stroke="black" points="2198.28,-84.8 2195.28,-88.8 2174.28,-88.8 2171.28,-84.8 2111.72,-84.8 2111.72,-48.8 2198.28,-48.8 2198.28,-84.8"/>
<text text-anchor="middle" x="2155" y="-62.6" font-family="Times,serif" font-size="14.00">UtilsModule</text>
</g>
<!-- UtilsModule&#45;&gt;AppModule -->
<g id="edge11" class="edge">
<title>UtilsModule&#45;&gt;AppModule</title>
<path fill="none" stroke="black" d="M2155,-85.08C2155,-100.75 2155,-120.8 2155,-120.8 2155,-120.8 2390.27,-120.8 2390.27,-120.8"/>
<polygon fill="black" stroke="black" points="2390.27,-124.3 2400.27,-120.8 2390.27,-117.3 2390.27,-124.3"/>
</g>
<!-- provideAuth(() =&gt; getAuth()) -->
<g id="node13" class="node">
<title>provideAuth(() =&gt; getAuth())</title>
<polygon fill="#8dd3c7" stroke="black" points="2093.13,-84.8 2090.13,-88.8 2069.13,-88.8 2066.13,-84.8 1910.87,-84.8 1910.87,-48.8 2093.13,-48.8 2093.13,-84.8"/>
<text text-anchor="middle" x="2002" y="-62.6" font-family="Times,serif" font-size="14.00">provideAuth(() =&gt; getAuth())</text>
</g>
<!-- provideAuth(() =&gt; getAuth())&#45;&gt;AppModule -->
<g id="edge12" class="edge">
<title>provideAuth(() =&gt; getAuth())&#45;&gt;AppModule</title>
<path fill="none" stroke="black" d="M2002,-84.84C2002,-101.53 2002,-123.8 2002,-123.8 2002,-123.8 2390.21,-123.8 2390.21,-123.8"/>
<polygon fill="black" stroke="black" points="2390.21,-127.3 2400.21,-123.8 2390.21,-120.3 2390.21,-127.3"/>
</g>
<!-- provideDatabase(() =&gt; getDatabase()) -->
<g id="node14" class="node">
<title>provideDatabase(() =&gt; getDatabase())</title>
<polygon fill="#8dd3c7" stroke="black" points="1892.74,-84.8 1889.74,-88.8 1868.74,-88.8 1865.74,-84.8 1663.26,-84.8 1663.26,-48.8 1892.74,-48.8 1892.74,-84.8"/>
<text text-anchor="middle" x="1778" y="-62.6" font-family="Times,serif" font-size="14.00">provideDatabase(() =&gt; getDatabase())</text>
</g>
<!-- provideDatabase(() =&gt; getDatabase())&#45;&gt;AppModule -->
<g id="edge13" class="edge">
<title>provideDatabase(() =&gt; getDatabase())&#45;&gt;AppModule</title>
<path fill="none" stroke="black" d="M1778,-85.1C1778,-103.07 1778,-127.8 1778,-127.8 1778,-127.8 2390.21,-127.8 2390.21,-127.8"/>
<polygon fill="black" stroke="black" points="2390.21,-131.3 2400.21,-127.8 2390.21,-124.3 2390.21,-131.3"/>
</g>
<!-- provideFirebaseApp(() =&gt; initializeApp(environment -->
<g id="node15" class="node">
<title>provideFirebaseApp(() =&gt; initializeApp(environment</title>
<polygon fill="#8dd3c7" stroke="black" points="1645.59,-84.8 1642.59,-88.8 1621.59,-88.8 1618.59,-84.8 1330.41,-84.8 1330.41,-48.8 1645.59,-48.8 1645.59,-84.8"/>
<text text-anchor="middle" x="1488" y="-62.6" font-family="Times,serif" font-size="14.00">provideFirebaseApp(() =&gt; initializeApp(environment</text>
</g>
<!-- provideFirebaseApp(() =&gt; initializeApp(environment&#45;&gt;AppModule -->
<g id="edge14" class="edge">
<title>provideFirebaseApp(() =&gt; initializeApp(environment&#45;&gt;AppModule</title>
<path fill="none" stroke="black" d="M1488,-84.97C1488,-103.89 1488,-130.8 1488,-130.8 1488,-130.8 2390.09,-130.8 2390.09,-130.8"/>
<polygon fill="black" stroke="black" points="2390.09,-134.3 2400.09,-130.8 2390.09,-127.3 2390.09,-134.3"/>
</g>
<!-- provideFirestore(() =&gt; getFirestore()) -->
<g id="node16" class="node">
<title>provideFirestore(() =&gt; getFirestore())</title>
<polygon fill="#8dd3c7" stroke="black" points="1312.16,-84.8 1309.16,-88.8 1288.16,-88.8 1285.16,-84.8 1085.84,-84.8 1085.84,-48.8 1312.16,-48.8 1312.16,-84.8"/>
<text text-anchor="middle" x="1199" y="-62.6" font-family="Times,serif" font-size="14.00">provideFirestore(() =&gt; getFirestore())</text>
</g>
<!-- provideFirestore(() =&gt; getFirestore())&#45;&gt;AppModule -->
<g id="edge15" class="edge">
<title>provideFirestore(() =&gt; getFirestore())&#45;&gt;AppModule</title>
<path fill="none" stroke="black" d="M1199,-85.11C1199,-104.95 1199,-133.8 1199,-133.8 1199,-133.8 2390.29,-133.8 2390.29,-133.8"/>
<polygon fill="black" stroke="black" points="2390.29,-137.3 2400.29,-133.8 2390.29,-130.3 2390.29,-137.3"/>
</g>
<!-- provideFunctions(() =&gt; getFunctions()) -->
<g id="node17" class="node">
<title>provideFunctions(() =&gt; getFunctions())</title>
<polygon fill="#8dd3c7" stroke="black" points="1067.59,-84.8 1064.59,-88.8 1043.59,-88.8 1040.59,-84.8 830.41,-84.8 830.41,-48.8 1067.59,-48.8 1067.59,-84.8"/>
<text text-anchor="middle" x="949" y="-62.6" font-family="Times,serif" font-size="14.00">provideFunctions(() =&gt; getFunctions())</text>
</g>
<!-- provideFunctions(() =&gt; getFunctions())&#45;&gt;AppModule -->
<g id="edge16" class="edge">
<title>provideFunctions(() =&gt; getFunctions())&#45;&gt;AppModule</title>
<path fill="none" stroke="black" d="M949,-84.83C949,-105.57 949,-136.8 949,-136.8 949,-136.8 2390.12,-136.8 2390.12,-136.8"/>
<polygon fill="black" stroke="black" points="2390.12,-140.3 2400.12,-136.8 2390.12,-133.3 2390.12,-140.3"/>
</g>
<!-- provideMessaging(() =&gt; getMessaging()) -->
<g id="node18" class="node">
<title>provideMessaging(() =&gt; getMessaging())</title>
<polygon fill="#8dd3c7" stroke="black" points="811.96,-84.8 808.96,-88.8 787.96,-88.8 784.96,-84.8 564.04,-84.8 564.04,-48.8 811.96,-48.8 811.96,-84.8"/>
<text text-anchor="middle" x="688" y="-62.6" font-family="Times,serif" font-size="14.00">provideMessaging(() =&gt; getMessaging())</text>
</g>
<!-- provideMessaging(() =&gt; getMessaging())&#45;&gt;AppModule -->
<g id="edge17" class="edge">
<title>provideMessaging(() =&gt; getMessaging())&#45;&gt;AppModule</title>
<path fill="none" stroke="black" d="M688,-85.09C688,-107.01 688,-140.8 688,-140.8 688,-140.8 2389.94,-140.8 2389.94,-140.8"/>
<polygon fill="black" stroke="black" points="2389.94,-144.3 2399.94,-140.8 2389.94,-137.3 2389.94,-144.3"/>
</g>
<!-- provideRemoteConfig(() =&gt; getRemoteConfig()) -->
<g id="node19" class="node">
<title>provideRemoteConfig(() =&gt; getRemoteConfig())</title>
<polygon fill="#8dd3c7" stroke="black" points="545.5,-84.8 542.5,-88.8 521.5,-88.8 518.5,-84.8 254.5,-84.8 254.5,-48.8 545.5,-48.8 545.5,-84.8"/>
<text text-anchor="middle" x="400" y="-62.6" font-family="Times,serif" font-size="14.00">provideRemoteConfig(() =&gt; getRemoteConfig())</text>
</g>
<!-- provideRemoteConfig(() =&gt; getRemoteConfig())&#45;&gt;AppModule -->
<g id="edge18" class="edge">
<title>provideRemoteConfig(() =&gt; getRemoteConfig())&#45;&gt;AppModule</title>
<path fill="none" stroke="black" d="M400,-85.05C400,-107.82 400,-143.8 400,-143.8 400,-143.8 2390.28,-143.8 2390.28,-143.8"/>
<polygon fill="black" stroke="black" points="2390.28,-147.3 2400.28,-143.8 2390.28,-140.3 2390.28,-147.3"/>
</g>
<!-- provideStorage(() =&gt; getStorage()) -->
<g id="node20" class="node">
<title>provideStorage(() =&gt; getStorage())</title>
<polygon fill="#8dd3c7" stroke="black" points="236.16,-84.8 233.16,-88.8 212.16,-88.8 209.16,-84.8 23.84,-84.8 23.84,-48.8 236.16,-48.8 236.16,-84.8"/>
<text text-anchor="middle" x="130" y="-62.6" font-family="Times,serif" font-size="14.00">provideStorage(() =&gt; getStorage())</text>
</g>
<!-- provideStorage(() =&gt; getStorage())&#45;&gt;AppModule -->
<g id="edge19" class="edge">
<title>provideStorage(() =&gt; getStorage())&#45;&gt;AppModule</title>
<path fill="none" stroke="black" d="M130,-84.95C130,-108.56 130,-146.8 130,-146.8 130,-146.8 2389.9,-146.8 2389.9,-146.8"/>
<polygon fill="black" stroke="black" points="2389.9,-150.3 2399.9,-146.8 2389.9,-143.3 2389.9,-150.3"/>
</g>
<!-- AuthService -->
<g id="node22" class="node">
<title>AuthService</title>
<ellipse fill="#fdb462" stroke="black" cx="2592" cy="-66.8" rx="59.11" ry="18"/>
<text text-anchor="middle" x="2592" y="-62.6" font-family="Times,serif" font-size="14.00">AuthService</text>
</g>
<!-- AuthService&#45;&gt;AppModule -->
<g id="edge21" class="edge">
<title>AuthService&#45;&gt;AppModule</title>
<path fill="none" stroke="black" d="M2592,-84.92C2592,-99.58 2592,-117.8 2592,-117.8 2592,-117.8 2493.78,-117.8 2493.78,-117.8"/>
<polygon fill="black" stroke="black" points="2493.78,-114.3 2483.78,-117.8 2493.78,-121.3 2493.78,-114.3"/>
</g>
<!-- LanguesService -->
<g id="node23" class="node">
<title>LanguesService</title>
<ellipse fill="#fdb462" stroke="black" cx="2442" cy="-66.8" rx="72.92" ry="18"/>
<text text-anchor="middle" x="2442" y="-62.6" font-family="Times,serif" font-size="14.00">LanguesService</text>
</g>
<!-- LanguesService&#45;&gt;AppModule -->
<g id="edge22" class="edge">
<title>LanguesService&#45;&gt;AppModule</title>
<path fill="none" stroke="black" d="M2442,-84.91C2442,-84.91 2442,-103.79 2442,-103.79"/>
<polygon fill="black" stroke="black" points="2438.5,-103.79 2442,-113.79 2445.5,-103.79 2438.5,-103.79"/>
</g>
</g>
</svg>
