<?xml version="1.0" encoding="utf-8"?>
<!-- Generator: Adobe Illustrator 24.0.2, SVG Export Plug-In . SVG Version: 6.00 Build 0)  -->
<svg version="1.1" id="Calque_1" xmlns="http://www.w3.org/2000/svg" xmlns:xlink="http://www.w3.org/1999/xlink" x="0px" y="0px"
	 viewBox="0 0 433.7 513.64" style="enable-background:new 0 0 433.7 513.64;" xml:space="preserve">
<style type="text/css">
	.st0{fill:url(#SVGID_1_);}
	.st1{fill:url(#SVGID_2_);}
	.st2{fill:url(#SVGID_3_);}
	.st3{fill:none;stroke:url(#SVGID_4_);stroke-width:1.0774;stroke-miterlimit:10;}
	.st4{fill:url(#SVGID_5_);}
	.st5{fill:url(#SVGID_6_);}
	.st6{fill:url(#SVGID_7_);}
	.st7{fill:url(#SVGID_8_);}
	.st8{fill:url(#SVGID_9_);}
</style>
<linearGradient id="SVGID_1_" gradientUnits="userSpaceOnUse" x1="119.6098" y1="185.968" x2="281.1846" y2="281.2121">
	<stop  offset="1.331947e-07" style="stop-color:#FFFFFF"/>
	<stop  offset="1" style="stop-color:#CCCCCC"/>
</linearGradient>
<path class="st0" d="M319.39,200.63c0-15.81-12.82-28.63-28.63-28.63c-9.06,0-17.13,4.21-22.38,10.78
	c-0.08,0.06-0.16,0.15-0.24,0.29c-0.01,0.02-0.03,0.04-0.04,0.06c-0.28,0.36-0.55,0.73-0.81,1.11c-4.17,4.79-17.69,10.51-32.71-3.99
	c-0.02-0.02-0.04-0.03-0.06-0.05c-5.17-5.07-12.24-8.2-20.05-8.2c-9.33,0-17.62,4.47-22.85,11.38c-0.05,0.05-0.1,0.12-0.15,0.2
	c0,0.01-0.01,0.01-0.01,0.02c-0.25,0.34-0.5,0.69-0.74,1.05c-3.98,4.79-16.93,10.57-32.05-4.03c-0.01-0.01-0.03-0.02-0.04-0.04
	c-5.2-5.3-12.43-8.59-20.43-8.59c-15.81,0-28.63,12.82-28.63,28.63c0,15.81,12.82,28.63,28.63,28.63c7.6,0,14.51-2.97,19.64-7.81
	c0.01-0.01,0.03-0.02,0.04-0.03c8.96-8.03,21.11-15.1,33.88-3.38c0.01,0.01,0.01,0.01,0.02,0.02c5.23,6.81,13.45,11.2,22.7,11.2
	c9.02,0,17.05-4.17,22.3-10.69c0,0,0,0,0.01-0.01c8.96-8.03,14.02-20.2,26.78-8.48c6.05,6.66,2.81,22.24-13.81,27.14
	c-9.73,0-18.31,4.85-23.49,12.27c-0.01,0.01-0.01,0.01-0.02,0.01c-8.96,8.03-13.63,11.74-26.39,0.01c-0.01-0.01-0.01-0.01-0.02-0.02
	c-5.17-7.42-13.77-12.28-23.5-12.28c-15.81,0-28.63,12.82-28.63,28.63c0,14.75,11.15,26.89,25.49,28.45c0,0,0,0,0.01,0
	c11.36,3.97,19.26,5.21,15.16,22.05c0,0,0,0.01,0,0.01c-1.2,2.68-2.02,5.59-2.35,8.67c-1.7,15.72,9.67,29.84,25.39,31.54
	c15.72,1.7,29.84-9.67,31.54-25.39c1.7-15.72-9.67-29.84-25.39-31.54c-0.96-0.1-1.91-0.16-2.85-0.17
	c-5.19-0.23-14.55-2.55-12.63-17.74c2.77-4.87,8.31-14.71,24.56,0.98c0.01,0.01,0.01,0.01,0.02,0.02
	c5.21,7.12,13.62,11.74,23.11,11.74c15.81,0,28.63-12.82,28.63-28.63c0-5.06-1.32-9.82-3.63-13.94
	c-1.54-5.87,1.45-17.42,20.99-22.66c1.17-0.31,2.11-0.69,2.86-1.1C310.6,224.74,319.39,213.72,319.39,200.63z"/>
<linearGradient id="SVGID_2_" gradientUnits="userSpaceOnUse" x1="179.4028" y1="84.5333" x2="340.9776" y2="179.7774">
	<stop  offset="1.331947e-07" style="stop-color:#FFFFFF"/>
	<stop  offset="1" style="stop-color:#B3B3B3"/>
</linearGradient>
<path class="st1" d="M216.75,165.46c8.5-54.99,47.06-23.81,43.12-92.41C249.1,132.63,209.23,108.2,216.75,165.46z"/>
<linearGradient id="SVGID_3_" gradientUnits="userSpaceOnUse" x1="190.9613" y1="64.9252" x2="352.5361" y2="160.1693">
	<stop  offset="1.331947e-07" style="stop-color:#FFFFFF"/>
	<stop  offset="1" style="stop-color:#B3B3B3"/>
</linearGradient>
<path class="st2" d="M236.43,110.71c-2.76-27.5-15.25-11.91-13.97-46.2C225.95,94.3,238.87,82.08,236.43,110.71z"/>
<linearGradient id="SVGID_4_" gradientUnits="userSpaceOnUse" x1="50.3414" y1="178.762" x2="378.6107" y2="244.4159">
	<stop  offset="0" style="stop-color:#FFFFFF"/>
	<stop  offset="1" style="stop-color:#BFBFBF"/>
</linearGradient>
<circle class="st3" cx="214.48" cy="211.59" r="166.81"/>
<g>
	<linearGradient id="SVGID_5_" gradientUnits="userSpaceOnUse" x1="113.9696" y1="454.1898" x2="124.3354" y2="505.6041">
		<stop  offset="0" style="stop-color:#FFFFFF"/>
		<stop  offset="1" style="stop-color:#E6E6E6"/>
	</linearGradient>
	<path class="st4" d="M130.24,401.01h12.8l-37.97,90.18h-2.91l-38.7-90.18H76.4l27.01,63.06L130.24,401.01z"/>
	<linearGradient id="SVGID_6_" gradientUnits="userSpaceOnUse" x1="159.2572" y1="445.0592" x2="169.623" y2="496.4735">
		<stop  offset="0" style="stop-color:#FFFFFF"/>
		<stop  offset="1" style="stop-color:#E6E6E6"/>
	</linearGradient>
	<path class="st5" d="M153,401.01h12.86v89.8H153V401.01z"/>
	<linearGradient id="SVGID_7_" gradientUnits="userSpaceOnUse" x1="201.8967" y1="436.4625" x2="212.2625" y2="487.8768">
		<stop  offset="0" style="stop-color:#FFFFFF"/>
		<stop  offset="1" style="stop-color:#E6E6E6"/>
	</linearGradient>
	<path class="st6" d="M195.88,431.68v7.52c5.23-5.79,11.16-8.68,17.81-8.68c3.68,0,7.11,0.95,10.28,2.86
		c3.17,1.91,5.58,4.52,7.23,7.84c1.65,3.32,2.47,8.58,2.47,15.78v33.81h-11.7v-33.68c0-6.04-0.92-10.36-2.76-12.95
		c-1.84-2.59-4.93-3.89-9.26-3.89c-5.53,0-10.22,2.76-14.08,8.29v42.23h-11.96v-59.14H195.88z"/>
	<linearGradient id="SVGID_8_" gradientUnits="userSpaceOnUse" x1="286.1448" y1="419.477" x2="296.5106" y2="470.8913">
		<stop  offset="0" style="stop-color:#FFFFFF"/>
		<stop  offset="1" style="stop-color:#E6E6E6"/>
	</linearGradient>
	<path class="st7" d="M329,469.99v14.14c-9.43,5.14-20.31,7.71-32.65,7.71c-10.03,0-18.53-2.01-25.52-6.04
		c-6.99-4.03-12.51-9.58-16.58-16.65c-4.07-7.07-6.11-14.72-6.11-22.95c0-13.07,4.66-24.06,13.98-32.98
		c9.32-8.91,20.82-13.37,34.49-13.37c9.43,0,19.9,2.46,31.43,7.39v13.82c-10.5-6-20.76-9-30.79-9c-10.28,0-18.82,3.25-25.62,9.74
		c-6.79,6.49-10.19,14.62-10.19,24.39c0,9.86,3.34,17.96,10.03,24.3c6.69,6.34,15.23,9.51,25.65,9.51
		C308,480.01,318.63,476.67,329,469.99z"/>
	<linearGradient id="SVGID_9_" gradientUnits="userSpaceOnUse" x1="343.7001" y1="407.8731" x2="354.0659" y2="459.2874">
		<stop  offset="0" style="stop-color:#FFFFFF"/>
		<stop  offset="1" style="stop-color:#E6E6E6"/>
	</linearGradient>
	<path class="st8" d="M344.94,401.01h12.86v89.8h-12.86V401.01z"/>
</g>
</svg>
